<svg version="1.1" id="Layer_1" xmlns="http://www.w3.org/2000/svg" xmlns:xlink="http://www.w3.org/1999/xlink" x="0px" y="0px"
	 width="100%" viewBox="0 0 478 478" enable-background="new 0 0 478 478" xml:space="preserve">
<path fill="#000000" opacity="1.000000" stroke="none" 
	d="
M263.000000,0.999999 
	C334.926697,1.000000 406.853363,1.000000 479.000000,1.000000 
	C479.000000,72.020744 479.000000,143.041718 478.600311,214.721649 
	C477.803772,214.539322 477.221222,213.736465 477.037781,212.850952 
	C474.040344,198.378708 471.715363,183.733490 467.984924,169.454849 
	C462.764465,149.473114 453.911102,130.789993 442.588806,113.652084 
	C433.806305,100.358604 422.967682,88.423500 412.906982,75.582703 
	C409.875977,72.381615 407.118744,69.326302 404.052551,66.621162 
	C399.837311,62.902290 395.388184,59.448490 390.899933,55.575592 
	C385.209991,51.164059 379.659424,47.058056 373.956696,42.635525 
	C368.550568,39.173817 363.296600,36.028637 357.870300,32.578438 
	C353.131531,29.904236 348.565094,27.535057 343.666443,24.999073 
	C338.669159,22.922182 334.004059,21.012096 329.152954,18.818371 
	C324.977997,17.078508 320.989014,15.622284 316.623016,14.087600 
	C313.163666,13.061486 310.081329,12.113833 306.614319,11.086325 
	C300.152832,9.392996 294.076019,7.779523 287.579407,6.097530 
	C279.439209,5.074860 271.718811,4.120710 263.643738,2.970514 
	C263.192749,2.182978 263.096375,1.591488 263.000000,0.999999 
z"/>
<path fill="#000000" opacity="1.000000" stroke="none" 
	d="
M0.999999,215.000000 
	C1.000000,143.739288 1.000000,72.478577 1.000000,1.000000 
	C72.687416,1.000000 144.375046,1.000000 216.885010,1.236802 
	C217.435333,1.968999 217.163315,2.464395 216.445984,2.977024 
	C210.666550,3.718433 205.332443,4.442609 199.582733,5.098248 
	C192.092880,6.647088 185.018600,8.264462 177.542206,9.931958 
	C169.470428,12.519814 161.800781,15.057548 153.820236,17.762890 
	C147.008514,20.673584 140.507675,23.416672 133.654938,26.197130 
	C126.853035,30.119827 120.403023,34.005154 113.592964,37.944714 
	C105.787102,43.315319 98.341286,48.631687 90.586357,54.086823 
	C83.502213,60.446827 76.727165,66.668068 69.644714,73.028397 
	C63.542442,79.741531 57.747562,86.315590 51.643120,93.051636 
	C46.847397,99.792503 42.361233,106.371391 37.564346,113.113037 
	C33.206478,121.063126 29.159342,128.850449 24.833576,136.820755 
	C21.688248,143.966217 18.821548,150.928680 15.623268,158.081635 
	C13.250060,165.515396 11.208432,172.758636 8.987003,180.356384 
	C7.188581,189.438248 5.569960,198.165619 3.593830,207.120422 
	C3.154224,209.296432 3.238192,211.274231 2.902909,213.178207 
	C2.780111,213.875534 1.663341,214.397842 0.999999,215.000000 
z"/>
<path fill="#000000" opacity="1.000000" stroke="none" 
	d="
M479.000000,265.000000 
	C479.000000,336.260193 479.000000,407.520386 479.000000,479.000000 
	C408.312592,479.000000 337.624939,479.000000 266.236023,478.613617 
	C267.023865,477.818695 268.493713,477.310486 270.005371,477.018616 
	C277.033905,475.661469 284.074005,474.364227 291.518982,473.026917 
	C298.967468,471.042084 306.006897,469.075867 313.439087,467.063293 
	C321.589264,464.025391 329.346741,461.033875 337.468109,458.014893 
	C344.235596,454.696442 350.639191,451.405487 357.400696,448.058655 
	C363.854950,444.037689 369.951263,440.072540 376.365601,435.961426 
	C380.468689,432.915894 384.253754,430.016296 388.353638,426.971985 
	C392.794434,423.253204 396.920441,419.679138 401.352936,415.965271 
	C406.140717,411.233154 410.622009,406.640808 415.408478,401.913025 
	C419.178009,397.534790 422.642395,393.292023 426.413757,388.910706 
	C429.425171,385.181244 432.129578,381.590302 434.986816,377.689270 
	C437.037628,374.585724 438.935608,371.792267 440.990173,368.684692 
	C443.135834,364.927582 445.124939,361.484650 447.429016,357.893677 
	C449.867096,353.512054 451.990204,349.278473 454.420135,344.871155 
	C456.500458,340.501160 458.273987,336.304932 460.365662,331.924744 
	C462.733521,325.827026 464.783173,319.913208 467.008179,313.656830 
	C469.158112,305.892731 471.132660,298.471191 473.440918,290.825195 
	C474.869415,282.492279 475.932861,274.379150 477.133301,266.286316 
	C477.208923,265.776459 478.352997,265.425110 479.000000,265.000000 
z"/>
<path fill="#000000" opacity="1.000000" stroke="none" 
	d="
M214.000000,479.000000 
	C143.072968,479.000000 72.145943,479.000000 1.000000,479.000000 
	C1.000000,408.312592 1.000000,337.624939 1.346462,266.138824 
	C2.127187,266.518433 2.766372,267.663605 2.962051,268.880066 
	C4.126616,276.119873 4.771781,283.468872 6.360248,290.610199 
	C12.003361,315.980072 21.358263,339.929474 34.694996,362.285461 
	C45.502598,380.402008 58.199066,396.992523 74.091850,411.425232 
	C81.799873,418.191711 89.378967,424.653168 97.097168,431.429016 
	C102.823944,435.440033 108.411613,439.136719 114.318245,442.987915 
	C121.410973,446.800110 128.184738,450.457764 135.124557,454.428223 
	C143.193512,458.104980 151.096390,461.468903 159.380051,464.912781 
	C164.137436,466.342499 168.514053,467.692261 173.096161,469.381042 
	C178.200790,470.757507 183.099899,471.794983 188.358795,473.018097 
	C195.478363,474.413239 202.238190,475.622772 209.425293,476.904236 
	C211.235062,477.650787 212.617523,478.325378 214.000000,479.000000 
z"/>
<path fill="#F79A04" opacity="1.000000" stroke="none" 
	d="
M73.962921,411.120239 
	C58.199066,396.992523 45.502598,380.402008 34.694996,362.285461 
	C21.358263,339.929474 12.003361,315.980072 6.360248,290.610199 
	C4.771781,283.468872 4.126616,276.119873 2.962051,268.880066 
	C2.766372,267.663605 2.127187,266.518433 1.346462,265.670166 
	C1.000000,249.312439 1.000000,232.624878 0.999999,215.468658 
	C1.663341,214.397842 2.780111,213.875534 2.902909,213.178207 
	C3.238192,211.274231 3.154224,209.296432 3.779722,207.430725 
	C5.674850,211.222885 7.033642,214.929657 8.377099,218.641968 
	C15.089267,237.189377 21.969709,255.678345 28.445297,274.308014 
	C32.634563,286.360168 36.011868,298.693207 40.136406,310.769409 
	C48.548527,335.399292 57.303226,359.912079 65.739441,384.533875 
	C68.744850,393.305450 71.236664,402.253021 73.962921,411.120239 
z"/>
<path fill="#EF7B21" opacity="1.000000" stroke="none" 
	d="
M263.000000,479.000000 
	C253.979111,479.000000 244.958206,479.000000 235.459412,478.599609 
	C234.426422,475.953400 234.026581,473.655273 233.291321,471.470062 
	C228.054352,455.905884 222.777924,440.354828 217.458038,424.818787 
	C210.475128,404.426117 203.423416,384.056976 196.448837,363.661469 
	C195.492035,360.863525 194.808945,357.971954 194.462280,355.046509 
	C204.283371,355.020294 213.641327,355.071320 223.031815,355.506348 
	C229.132874,374.343292 235.057663,392.845032 241.309647,411.235565 
	C247.789230,430.295746 254.672729,449.218506 261.162933,468.275146 
	C262.317535,471.665405 262.414612,475.415863 263.000000,479.000000 
z"/>
<path fill="#E04355" opacity="1.000000" stroke="none" 
	d="
M479.000000,264.571533 
	C478.352997,265.425110 477.208923,265.776459 477.133301,266.286316 
	C475.932861,274.379150 474.869415,282.492279 473.140259,290.639374 
	C471.262756,288.794128 469.575562,287.066956 468.846680,285.001648 
	C462.923462,268.217957 457.226776,251.354538 451.367737,234.547928 
	C445.780609,218.521301 439.982208,202.567886 434.460297,186.519089 
	C429.378357,171.749146 424.626404,156.865814 419.570496,142.086655 
	C414.937012,128.542267 409.979645,115.108391 405.374207,101.554726 
	C401.515625,90.198982 397.924194,78.751717 394.288147,67.321526 
	C393.087006,63.545658 392.115692,59.696678 391.039246,55.881130 
	C395.388184,59.448490 399.837311,62.902290 404.052551,66.621162 
	C407.118744,69.326302 409.875977,72.381615 412.926453,75.962746 
	C415.122498,82.560966 417.138367,88.485916 419.208679,94.391769 
	C423.655670,107.077637 428.228058,119.720467 432.567780,132.442780 
	C437.179504,145.962708 441.504395,159.580368 446.096283,173.107193 
	C451.012482,187.589325 456.099335,202.013474 461.101715,216.466385 
	C465.510712,229.204834 469.795471,241.988571 474.433502,254.642929 
	C475.083038,256.415100 477.435699,257.563080 479.000000,259.000000 
	C479.000000,260.714355 479.000000,262.428711 479.000000,264.571533 
z"/>
<path fill="#F0811C" opacity="1.000000" stroke="none" 
	d="
M193.999130,355.123749 
	C194.808945,357.971954 195.492035,360.863525 196.448837,363.661469 
	C203.423416,384.056976 210.475128,404.426117 217.458038,424.818787 
	C222.777924,440.354828 228.054352,455.905884 233.291321,471.470062 
	C234.026581,473.655273 234.426422,475.953400 234.990753,478.599609 
	C228.312363,479.000000 221.624710,479.000000 214.468536,479.000000 
	C212.617523,478.325378 211.235062,477.650787 209.344009,476.551941 
	C194.890045,435.792664 180.944656,395.457550 167.462402,355.045227 
	C176.616730,355.019897 185.307938,355.071838 193.999130,355.123749 
z"/>
<path fill="#ED7626" opacity="1.000000" stroke="none" 
	d="
M263.375000,479.000000 
	C262.414612,475.415863 262.317535,471.665405 261.162933,468.275146 
	C254.672729,449.218506 247.789230,430.295746 241.309647,411.235565 
	C235.057663,392.845032 229.132874,374.343292 223.494995,355.429382 
	C232.283752,355.020233 240.641861,355.072083 249.081238,355.482819 
	C254.474030,371.368713 259.815369,386.885620 265.089569,402.425354 
	C271.535919,421.418610 277.799255,440.475372 284.429321,459.403961 
	C286.091370,464.148987 288.853455,468.508728 291.109985,473.045532 
	C284.074005,474.364227 277.033905,475.661469 270.005371,477.018616 
	C268.493713,477.310486 267.023865,477.818695 265.767395,478.613617 
	C265.250000,479.000000 264.500000,479.000000 263.375000,479.000000 
z"/>
<path fill="#DF4058" opacity="1.000000" stroke="none" 
	d="
M479.000000,258.531342 
	C477.435699,257.563080 475.083038,256.415100 474.433502,254.642929 
	C469.795471,241.988571 465.510712,229.204834 461.101715,216.466385 
	C456.099335,202.013474 451.012482,187.589325 446.096283,173.107193 
	C441.504395,159.580368 437.179504,145.962708 432.567780,132.442780 
	C428.228058,119.720467 423.655670,107.077637 419.208679,94.391769 
	C417.138367,88.485916 415.122498,82.560966 413.062500,76.264633 
	C422.967682,88.423500 433.806305,100.358604 442.588806,113.652084 
	C453.911102,130.789993 462.764465,149.473114 467.984924,169.454849 
	C471.715363,183.733490 474.040344,198.378708 477.037781,212.850952 
	C477.221222,213.736465 477.803772,214.539322 478.600311,215.190308 
	C479.000000,229.354233 479.000000,243.708450 479.000000,258.531342 
z"/>
<path fill="#E65C3E" opacity="1.000000" stroke="none" 
	d="
M262.531372,0.999999 
	C263.096375,1.591488 263.192749,2.182978 263.646729,3.372191 
	C264.804932,7.181767 265.390076,10.466447 266.446777,13.591685 
	C269.485962,22.580210 272.781281,31.481815 275.857361,40.458218 
	C282.868927,60.918919 289.844055,81.392288 296.753296,101.887718 
	C298.337982,106.588524 299.596893,111.399170 300.685791,116.358032 
	C293.943054,118.147614 287.520172,119.738426 280.947998,120.967438 
	C267.199127,80.737083 253.599564,40.868546 240.000000,1.000000 
	C247.354248,1.000000 254.708496,1.000000 262.531372,0.999999 
z"/>
<path fill="#E7603B" opacity="1.000000" stroke="none" 
	d="
M239.531372,1.000000 
	C253.599564,40.868546 267.199127,80.737083 280.641937,121.176628 
	C273.997101,123.314995 267.509033,124.882362 260.994324,126.037758 
	C257.897247,116.332619 254.913040,107.009880 251.736847,97.753021 
	C246.622772,82.848305 241.350433,67.997971 236.205917,53.103603 
	C232.796570,43.232895 229.492645,33.325768 226.143478,23.434284 
	C224.070450,17.311718 222.090027,11.154835 219.837753,5.099000 
	C219.485428,4.151682 217.904236,3.661402 216.891296,2.959787 
	C217.163315,2.464395 217.435333,1.968999 217.353668,1.236802 
	C224.354248,1.000000 231.708496,1.000000 239.531372,1.000000 
z"/>
<path fill="#E45347" opacity="1.000000" stroke="none" 
	d="
M434.834015,377.999390 
	C432.129578,381.590302 429.425171,385.181244 426.122894,388.702942 
	C425.045990,387.966644 424.383636,387.365814 424.115143,386.622711 
	C419.484100,373.804810 414.736053,361.025696 410.347351,348.124542 
	C403.823364,328.946411 397.675476,309.640381 391.155273,290.460938 
	C384.569794,271.089539 377.706482,251.812744 371.000397,232.482193 
	C364.687683,214.285568 358.321838,196.106323 352.180237,177.851852 
	C349.484436,169.839172 347.287262,161.658737 345.144684,153.379700 
	C346.005585,152.379074 347.227783,151.397537 347.070923,150.750214 
	C343.631531,136.557053 340.039124,122.400963 336.404175,107.952301 
	C331.642853,108.987267 327.321167,109.926674 322.967957,110.487610 
	C319.353882,99.212830 315.919373,88.265060 312.153656,77.432411 
	C306.643097,61.580482 300.775696,45.852322 295.299164,29.988987 
	C292.590485,22.143074 290.415588,14.112872 287.999207,6.166051 
	C294.076019,7.779523 300.152832,9.392996 306.624939,11.477840 
	C307.378845,13.567010 307.592285,15.233704 308.117981,16.795258 
	C315.798462,39.610550 323.438873,62.439869 331.253571,85.209297 
	C341.018860,113.662163 350.904724,142.073822 360.797028,170.482910 
	C368.876556,193.685928 377.102356,216.838135 385.151764,240.051544 
	C392.722137,261.883453 400.160217,283.761261 407.631439,305.627441 
	C415.483459,328.607971 423.266174,351.612396 431.237701,374.551270 
	C431.723267,375.948486 433.602997,376.861206 434.834015,377.999390 
z"/>
<path fill="#E24D4C" opacity="1.000000" stroke="none" 
	d="
M454.113312,345.044922 
	C451.990204,349.278473 449.867096,353.512054 447.080017,357.798096 
	C445.293427,356.116516 443.796021,354.517914 443.111938,352.625305 
	C439.836670,343.563477 436.811096,334.411743 433.640381,325.311615 
	C430.141571,315.269714 426.495270,305.278564 423.069336,295.212128 
	C418.624573,282.151886 414.426392,269.007507 409.949890,255.958405 
	C405.847137,243.998795 401.420837,232.150269 397.307495,220.194138 
	C391.410309,203.052948 385.733002,185.836090 379.841492,168.692902 
	C373.794373,151.096893 367.500732,133.585266 361.505707,115.971802 
	C356.578522,101.495758 352.081635,86.872856 347.119110,72.409363 
	C341.454651,55.899960 335.465607,39.502075 329.690918,23.030033 
	C329.269318,21.827374 329.442413,20.416227 329.338989,19.102013 
	C334.004059,21.012096 338.669159,22.922182 343.667236,25.408278 
	C347.307587,36.930901 350.316650,47.978760 353.990204,58.801067 
	C359.925629,76.286812 366.432220,93.577957 372.451050,111.036293 
	C379.450165,131.338089 386.093323,151.762436 393.063263,172.074493 
	C397.918579,186.223953 403.195770,200.228668 408.048340,214.378998 
	C415.004517,234.663666 421.750092,255.020584 428.576630,275.349670 
	C433.820740,290.966278 438.844360,306.661133 444.374390,322.175659 
	C447.151184,329.966095 450.838013,337.432159 454.113312,345.044922 
z"/>
<path fill="#E04653" opacity="1.000000" stroke="none" 
	d="
M390.899902,55.575600 
	C392.115692,59.696678 393.087006,63.545658 394.288147,67.321526 
	C397.924194,78.751717 401.515625,90.198982 405.374207,101.554726 
	C409.979645,115.108391 414.937012,128.542267 419.570496,142.086655 
	C424.626404,156.865814 429.378357,171.749146 434.460297,186.519089 
	C439.982208,202.567886 445.780609,218.521301 451.367737,234.547928 
	C457.226776,251.354538 462.923462,268.217957 468.846680,285.001648 
	C469.575562,287.066956 471.262756,288.794128 472.806519,290.863831 
	C471.132660,298.471191 469.158112,305.892731 466.680908,313.557739 
	C465.073975,312.226654 463.611786,310.788940 462.945618,309.046844 
	C461.823212,306.111450 461.397095,302.915100 460.345215,299.946442 
	C453.065063,279.400574 445.480713,258.960022 438.408356,238.343536 
	C425.938080,201.991806 413.880585,165.498489 401.426056,129.141266 
	C392.153198,102.071877 382.487579,75.137108 373.166290,48.084026 
	C372.672760,46.651672 373.758362,44.675217 374.108826,42.952057 
	C379.659424,47.058056 385.209991,51.164059 390.899902,55.575600 
z"/>
<path fill="#E34F4A" opacity="1.000000" stroke="none" 
	d="
M329.152954,18.818375 
	C329.442413,20.416227 329.269318,21.827374 329.690918,23.030033 
	C335.465607,39.502075 341.454651,55.899960 347.119110,72.409363 
	C352.081635,86.872856 356.578522,101.495758 361.505707,115.971802 
	C367.500732,133.585266 373.794373,151.096893 379.841492,168.692902 
	C385.733002,185.836090 391.410309,203.052948 397.307495,220.194138 
	C401.420837,232.150269 405.847137,243.998795 409.949890,255.958405 
	C414.426392,269.007507 418.624573,282.151886 423.069336,295.212128 
	C426.495270,305.278564 430.141571,315.269714 433.640381,325.311615 
	C436.811096,334.411743 439.836670,343.563477 443.111938,352.625305 
	C443.796021,354.517914 445.293427,356.116516 446.765045,357.946167 
	C445.124939,361.484650 443.135834,364.927582 440.662903,368.585785 
	C439.074524,367.226410 437.555359,365.799591 436.932678,364.053162 
	C432.910065,352.770782 429.119263,341.406067 425.184082,330.092133 
	C418.075012,309.652863 410.824127,289.262390 403.805237,268.792328 
	C395.447571,244.417969 387.371521,219.946960 378.992188,195.580170 
	C368.382172,164.726578 357.577118,133.940094 346.880432,103.116241 
	C340.550720,84.876282 334.177856,66.650490 327.996887,48.360027 
	C324.164215,37.018505 320.654663,25.567770 317.000061,14.166058 
	C320.989014,15.622284 324.977997,17.078508 329.152954,18.818375 
z"/>
<path fill="#E24B4E" opacity="1.000000" stroke="none" 
	d="
M454.420135,344.871155 
	C450.838013,337.432159 447.151184,329.966095 444.374390,322.175659 
	C438.844360,306.661133 433.820740,290.966278 428.576630,275.349670 
	C421.750092,255.020584 415.004517,234.663666 408.048340,214.378998 
	C403.195770,200.228668 397.918579,186.223953 393.063263,172.074493 
	C386.093323,151.762436 379.450165,131.338089 372.451050,111.036293 
	C366.432220,93.577957 359.925629,76.286812 353.990204,58.801067 
	C350.316650,47.978760 347.307587,36.930901 343.999451,25.575085 
	C348.565094,27.535057 353.131531,29.904236 357.862366,33.008789 
	C359.920807,40.920101 361.412628,48.232635 363.793304,55.243347 
	C368.648468,69.541153 374.117310,83.629372 379.088623,97.889252 
	C387.129425,120.953758 395.013550,144.073212 402.884735,167.196396 
	C407.809113,181.662766 412.492859,196.211349 417.458038,210.663467 
	C423.129364,227.171173 428.993683,243.612564 434.773468,260.083038 
	C443.198456,284.091461 451.622833,308.100128 460.047485,332.108673 
	C458.273987,336.304932 456.500458,340.501160 454.420135,344.871155 
z"/>
<path fill="#E35148" opacity="1.000000" stroke="none" 
	d="
M316.623016,14.087597 
	C320.654663,25.567770 324.164215,37.018505 327.996887,48.360027 
	C334.177856,66.650490 340.550720,84.876282 346.880432,103.116241 
	C357.577118,133.940094 368.382172,164.726578 378.992188,195.580170 
	C387.371521,219.946960 395.447571,244.417969 403.805237,268.792328 
	C410.824127,289.262390 418.075012,309.652863 425.184082,330.092133 
	C429.119263,341.406067 432.910065,352.770782 436.932678,364.053162 
	C437.555359,365.799591 439.074524,367.226410 440.506348,368.899963 
	C438.935608,371.792267 437.037628,374.585724 434.986816,377.689270 
	C433.602997,376.861206 431.723267,375.948486 431.237701,374.551270 
	C423.266174,351.612396 415.483459,328.607971 407.631439,305.627441 
	C400.160217,283.761261 392.722137,261.883453 385.151764,240.051544 
	C377.102356,216.838135 368.876556,193.685928 360.797028,170.482910 
	C350.904724,142.073822 341.018860,113.662163 331.253571,85.209297 
	C323.438873,62.439869 315.798462,39.610550 308.117981,16.795258 
	C307.592285,15.233704 307.378845,13.567010 307.009613,11.557697 
	C310.081329,12.113833 313.163666,13.061486 316.623016,14.087597 
z"/>
<path fill="#E14950" opacity="1.000000" stroke="none" 
	d="
M460.365662,331.924744 
	C451.622833,308.100128 443.198456,284.091461 434.773468,260.083038 
	C428.993683,243.612564 423.129364,227.171173 417.458038,210.663467 
	C412.492859,196.211349 407.809113,181.662766 402.884735,167.196396 
	C395.013550,144.073212 387.129425,120.953758 379.088623,97.889252 
	C374.117310,83.629372 368.648468,69.541153 363.793304,55.243347 
	C361.412628,48.232635 359.920807,40.920101 358.034668,33.313808 
	C363.296600,36.028637 368.550568,39.173817 373.956696,42.635529 
	C373.758362,44.675217 372.672760,46.651672 373.166290,48.084026 
	C382.487579,75.137108 392.153198,102.071877 401.426056,129.141266 
	C413.880585,165.498489 425.938080,201.991806 438.408356,238.343536 
	C445.480713,258.960022 453.065063,279.400574 460.345215,299.946442 
	C461.397095,302.915100 461.823212,306.111450 462.945618,309.046844 
	C463.611786,310.788940 465.073975,312.226654 466.505493,313.900299 
	C464.783173,319.913208 462.733521,325.827026 460.365662,331.924744 
z"/>
<path fill="#E55843" opacity="1.000000" stroke="none" 
	d="
M287.579407,6.097530 
	C290.415588,14.112872 292.590485,22.143074 295.299164,29.988987 
	C300.775696,45.852322 306.643097,61.580482 312.153656,77.432411 
	C315.919373,88.265060 319.353882,99.212830 322.612244,110.647675 
	C315.193939,112.843903 308.099823,114.501587 301.005707,116.159271 
	C299.596893,111.399170 298.337982,106.588524 296.753296,101.887718 
	C289.844055,81.392288 282.868927,60.918919 275.857361,40.458218 
	C272.781281,31.481815 269.485962,22.580210 266.446777,13.591685 
	C265.390076,10.466447 264.804932,7.181767 264.001373,3.568237 
	C271.718811,4.120710 279.439209,5.074860 287.579407,6.097530 
z"/>
<path fill="#F38A13" opacity="1.000000" stroke="none" 
	d="
M172.890671,469.041992 
	C168.514053,467.692261 164.137436,466.342499 159.370621,464.528198 
	C158.682053,462.776642 158.490097,461.453613 158.069122,460.208008 
	C153.015305,445.255066 147.981995,430.294861 142.834824,415.373932 
	C136.448029,396.859589 129.928345,378.391144 123.523468,359.882965 
	C116.402206,339.304657 109.322464,318.711884 102.268150,298.110535 
	C96.672844,281.770020 91.229492,265.376984 85.550362,249.065887 
	C82.389221,239.986710 78.722084,231.083511 75.571281,222.000992 
	C70.730644,208.047318 66.168205,193.997391 61.432190,180.007095 
	C56.587784,165.696625 51.744404,151.385117 46.768116,137.120285 
	C43.940868,129.015778 40.848206,121.003876 37.875069,112.950272 
	C42.361233,106.371391 46.847397,99.792503 51.824711,93.356720 
	C53.345139,95.573456 54.597496,97.568336 55.362434,99.735291 
	C57.791767,106.617188 59.943367,113.597183 62.375740,120.477951 
	C68.902153,138.940048 75.594772,157.343643 82.066544,175.824692 
	C85.195908,184.761032 87.888474,193.849426 90.937737,202.814941 
	C95.427887,216.017014 100.098938,229.157455 104.621933,242.348495 
	C110.174911,258.543396 115.596474,274.783752 121.244896,290.945038 
	C121.901558,292.823853 123.639542,294.324738 124.952469,296.463989 
	C125.039986,299.071899 125.116676,301.218628 125.051544,303.361084 
	C124.707542,314.677582 125.143501,325.830292 131.277954,336.049683 
	C131.086182,337.701721 130.843781,339.202698 131.265610,340.485229 
	C134.165436,349.302277 137.236008,358.062927 140.191025,366.862061 
	C145.057617,381.353363 149.804520,395.885254 154.736969,410.353973 
	C161.002838,428.734131 167.432816,447.058411 173.665619,465.449646 
	C174.003021,466.445221 173.175781,467.835449 172.890671,469.041992 
z"/>
<path fill="#F48E10" opacity="1.000000" stroke="none" 
	d="
M37.564342,113.113037 
	C40.848206,121.003876 43.940868,129.015778 46.768116,137.120285 
	C51.744404,151.385117 56.587784,165.696625 61.432190,180.007095 
	C66.168205,193.997391 70.730644,208.047318 75.571281,222.000992 
	C78.722084,231.083511 82.389221,239.986710 85.550362,249.065887 
	C91.229492,265.376984 96.672844,281.770020 102.268150,298.110535 
	C109.322464,318.711884 116.402206,339.304657 123.523468,359.882965 
	C129.928345,378.391144 136.448029,396.859589 142.834824,415.373932 
	C147.981995,430.294861 153.015305,445.255066 158.069122,460.208008 
	C158.490097,461.453613 158.682053,462.776642 158.989853,464.448242 
	C151.096390,461.468903 143.193512,458.104980 135.132263,454.000153 
	C134.700546,451.297852 134.730576,449.233673 134.106445,447.391083 
	C128.456985,430.712341 122.661011,414.083344 116.971329,397.418121 
	C110.639587,378.872284 104.476059,360.268402 98.053047,341.754425 
	C90.645790,320.403442 82.893394,299.171722 75.555878,277.797211 
	C69.303482,259.583710 63.560268,241.195770 57.351788,222.966751 
	C48.522789,197.043488 39.546810,171.169342 30.424561,145.348083 
	C29.316151,142.210632 26.914497,139.530060 25.112206,136.637756 
	C29.159342,128.850449 33.206478,121.063126 37.564342,113.113037 
z"/>
<path fill="#F5910C" opacity="1.000000" stroke="none" 
	d="
M24.833576,136.820755 
	C26.914497,139.530060 29.316151,142.210632 30.424561,145.348083 
	C39.546810,171.169342 48.522789,197.043488 57.351788,222.966751 
	C63.560268,241.195770 69.303482,259.583710 75.555878,277.797211 
	C82.893394,299.171722 90.645790,320.403442 98.053047,341.754425 
	C104.476059,360.268402 110.639587,378.872284 116.971329,397.418121 
	C122.661011,414.083344 128.456985,430.712341 134.106445,447.391083 
	C134.730576,449.233673 134.700546,451.297852 134.966202,453.687317 
	C128.184738,450.457764 121.410973,446.800110 114.318283,442.565491 
	C113.727379,439.688599 113.853836,437.251923 113.119095,435.110748 
	C108.158020,420.653595 102.954941,406.279694 97.946503,391.838501 
	C92.608604,376.447327 87.378929,361.018524 82.138634,345.593689 
	C76.097031,327.810242 70.201912,309.976166 64.041847,292.234009 
	C59.370987,278.781006 54.208931,265.497986 49.576668,252.032288 
	C40.877876,226.745453 32.504120,201.346634 23.765678,176.073746 
	C21.615807,169.856003 18.582191,163.943802 15.954849,157.891144 
	C18.821548,150.928680 21.688248,143.966217 24.833576,136.820755 
z"/>
<path fill="#F18517" opacity="1.000000" stroke="none" 
	d="
M124.876205,296.000854 
	C123.639542,294.324738 121.901558,292.823853 121.244896,290.945038 
	C115.596474,274.783752 110.174911,258.543396 104.621933,242.348495 
	C100.098938,229.157455 95.427887,216.017014 90.937737,202.814941 
	C87.888474,193.849426 85.195908,184.761032 82.066544,175.824692 
	C75.594772,157.343643 68.902153,138.940048 62.375740,120.477951 
	C59.943367,113.597183 57.791767,106.617188 55.362434,99.735291 
	C54.597496,97.568336 53.345139,95.573456 52.134277,93.194733 
	C57.747562,86.315590 63.542442,79.741531 69.803101,73.357285 
	C72.940323,81.577744 75.494026,89.650024 78.313820,97.628242 
	C81.634331,107.023132 85.347214,116.280640 88.599701,125.697975 
	C93.850777,140.902039 98.824600,156.201614 103.990791,171.435303 
	C108.416031,184.484146 112.768181,197.562820 117.516762,210.494583 
	C119.480812,215.843262 122.394485,220.843201 124.952103,226.464905 
	C124.977364,249.952316 124.926788,272.976593 124.876205,296.000854 
z"/>
<path fill="#F5940A" opacity="1.000000" stroke="none" 
	d="
M15.623270,158.081635 
	C18.582191,163.943802 21.615807,169.856003 23.765678,176.073746 
	C32.504120,201.346634 40.877876,226.745453 49.576668,252.032288 
	C54.208931,265.497986 59.370987,278.781006 64.041847,292.234009 
	C70.201912,309.976166 76.097031,327.810242 82.138634,345.593689 
	C87.378929,361.018524 92.608604,376.447327 97.946503,391.838501 
	C102.954941,406.279694 108.158020,420.653595 113.119095,435.110748 
	C113.853836,437.251923 113.727379,439.688599 113.999313,442.410950 
	C108.411613,439.136719 102.823944,435.440033 97.079208,431.043518 
	C95.982971,427.879852 94.937485,425.450531 94.123344,422.946075 
	C90.896332,413.019043 87.859970,403.028656 84.530769,393.136536 
	C80.188332,380.233795 75.550095,367.430664 71.193008,354.532684 
	C65.080673,336.438812 59.283257,318.236969 53.029076,300.192932 
	C46.981636,282.745392 40.297081,265.517822 34.309448,248.050659 
	C27.251684,227.461716 20.717201,206.693695 13.732265,186.079071 
	C12.959844,183.799423 10.723960,182.015640 9.166805,180.001892 
	C11.208432,172.758636 13.250060,165.515396 15.623270,158.081635 
z"/>
<path fill="#F69607" opacity="1.000000" stroke="none" 
	d="
M8.987004,180.356384 
	C10.723960,182.015640 12.959844,183.799423 13.732265,186.079071 
	C20.717201,206.693695 27.251684,227.461716 34.309448,248.050659 
	C40.297081,265.517822 46.981636,282.745392 53.029076,300.192932 
	C59.283257,318.236969 65.080673,336.438812 71.193008,354.532684 
	C75.550095,367.430664 80.188332,380.233795 84.530769,393.136536 
	C87.859970,403.028656 90.896332,413.019043 94.123344,422.946075 
	C94.937485,425.450531 95.982971,427.879852 96.940109,430.729187 
	C89.378967,424.653168 81.799873,418.191711 74.091850,411.425232 
	C71.236664,402.253021 68.744850,393.305450 65.739441,384.533875 
	C57.303226,359.912079 48.548527,335.399292 40.136406,310.769409 
	C36.011868,298.693207 32.634563,286.360168 28.445297,274.308014 
	C21.969709,255.678345 15.089267,237.189377 8.377099,218.641968 
	C7.033642,214.929657 5.674850,211.222885 4.137231,207.203278 
	C5.569960,198.165619 7.188581,189.438248 8.987004,180.356384 
z"/>
<path fill="#F0811C" opacity="1.000000" stroke="none" 
	d="
M124.876274,226.001755 
	C122.394485,220.843201 119.480812,215.843262 117.516762,210.494583 
	C112.768181,197.562820 108.416031,184.484146 103.990791,171.435303 
	C98.824600,156.201614 93.850777,140.902039 88.599701,125.697975 
	C85.347214,116.280640 81.634331,107.023132 78.313820,97.628242 
	C75.494026,89.650024 72.940323,81.577744 70.110504,73.218201 
	C76.727165,66.668068 83.502213,60.446827 90.836464,54.339497 
	C92.713646,57.489899 94.245323,60.453159 95.314903,63.574757 
	C102.251961,83.820763 109.054985,104.112648 115.970612,124.366058 
	C119.997490,136.159378 124.151985,147.909119 127.905907,159.822906 
	C123.498367,161.023392 119.433968,162.079437 115.186623,163.183014 
	C115.715347,165.399323 116.101883,167.155655 116.554237,168.894867 
	C121.425842,187.625320 127.416267,206.191452 124.876274,226.001755 
z"/>
<path fill="#EB6D2F" opacity="1.000000" stroke="none" 
	d="
M154.131119,17.595284 
	C161.800781,15.057548 169.470428,12.519814 177.702423,10.262127 
	C182.562378,22.592443 186.958496,34.608700 191.135193,46.700733 
	C197.856857,66.160805 204.492401,85.651184 211.047913,105.167854 
	C214.530945,115.537277 217.769135,125.988945 220.796997,136.587006 
	C212.984512,138.532455 205.492874,140.294373 197.928070,141.687775 
	C193.032532,127.360466 188.170029,113.415421 183.397232,99.439735 
	C176.102859,78.080391 168.964371,56.667229 161.551926,35.349155 
	C159.449341,29.302193 156.624649,23.506313 154.131119,17.595284 
z"/>
<path fill="#EF7B22" opacity="1.000000" stroke="none" 
	d="
M128.249054,159.678467 
	C124.151985,147.909119 119.997490,136.159378 115.970612,124.366058 
	C109.054985,104.112648 102.251961,83.820763 95.314903,63.574757 
	C94.245323,60.453159 92.713646,57.489899 91.145569,54.200737 
	C98.341286,48.631687 105.787102,43.315319 113.752670,38.276466 
	C118.364906,50.114094 122.530357,61.649010 126.532021,73.240471 
	C131.938171,88.900276 137.295197,104.577988 142.526459,120.296890 
	C146.185211,131.290619 149.598129,142.366135 152.799347,153.588013 
	C144.401611,155.740097 136.325333,157.709274 128.249054,159.678467 
z"/>
<path fill="#EC722A" opacity="1.000000" stroke="none" 
	d="
M153.820236,17.762890 
	C156.624649,23.506313 159.449341,29.302193 161.551926,35.349155 
	C168.964371,56.667229 176.102859,78.080391 183.397232,99.439735 
	C188.170029,113.415421 193.032532,127.360466 197.623840,141.921722 
	C189.928223,144.313293 182.463608,146.102356 174.917007,147.523544 
	C172.035065,139.008331 169.228149,130.863373 166.436554,122.713173 
	C158.486664,99.503143 150.492340,76.308136 142.622559,53.070961 
	C139.601624,44.151035 136.870193,35.133057 134.006836,26.159760 
	C140.507675,23.416672 147.008514,20.673584 153.820236,17.762890 
z"/>
<path fill="#E96833" opacity="1.000000" stroke="none" 
	d="
M221.117844,136.403473 
	C217.769135,125.988945 214.530945,115.537277 211.047913,105.167854 
	C204.492401,85.651184 197.856857,66.160805 191.135193,46.700733 
	C186.958496,34.608700 182.562378,22.592443 178.104538,10.212007 
	C185.018600,8.264462 192.092880,6.647088 199.593079,5.485978 
	C201.321838,10.053785 202.573502,14.182377 203.936478,18.273880 
	C209.460159,34.855469 214.972626,51.441032 220.574814,67.996170 
	C227.672607,88.970985 234.853592,109.917648 241.643066,131.041107 
	C234.564224,132.938354 227.841034,134.670914 221.117844,136.403473 
z"/>
<path fill="#ED7626" opacity="1.000000" stroke="none" 
	d="
M133.654938,26.197132 
	C136.870193,35.133057 139.601624,44.151035 142.622559,53.070961 
	C150.492340,76.308136 158.486664,99.503143 166.436554,122.713173 
	C169.228149,130.863373 172.035065,139.008331 174.556366,147.687256 
	C167.225418,149.947601 160.173111,151.676361 153.120819,153.405121 
	C149.598129,142.366135 146.185211,131.290619 142.526459,120.296890 
	C137.295197,104.577988 131.938171,88.900276 126.532021,73.240471 
	C122.530357,61.649010 118.364906,50.114094 114.112709,38.222237 
	C120.403023,34.005154 126.853035,30.119827 133.654938,26.197132 
z"/>
<path fill="#E86437" opacity="1.000000" stroke="none" 
	d="
M241.998703,130.876450 
	C234.853592,109.917648 227.672607,88.970985 220.574814,67.996170 
	C214.972626,51.441032 209.460159,34.855469 203.936478,18.273880 
	C202.573502,14.182377 201.321838,10.053785 200.008667,5.554514 
	C205.332443,4.442609 210.666550,3.718433 216.445969,2.977021 
	C217.904236,3.661402 219.485428,4.151682 219.837753,5.099000 
	C222.090027,11.154835 224.070450,17.311718 226.143478,23.434284 
	C229.492645,33.325768 232.796570,43.232895 236.205917,53.103603 
	C241.350433,67.997971 246.622772,82.848305 251.736847,97.753021 
	C254.913040,107.009880 257.897247,116.332619 260.668365,126.212204 
	C254.245621,128.157898 248.122162,129.517166 241.998703,130.876450 
z"/>
<path fill="#E45645" opacity="1.000000" stroke="none" 
	d="
M344.863678,153.554459 
	C347.287262,161.658737 349.484436,169.839172 352.180237,177.851852 
	C358.321838,196.106323 364.687683,214.285568 371.000397,232.482193 
	C377.706482,251.812744 384.569794,271.089539 391.155273,290.460938 
	C397.675476,309.640381 403.823364,328.946411 410.347351,348.124542 
	C414.736053,361.025696 419.484100,373.804810 424.115143,386.622711 
	C424.383636,387.365814 425.045990,387.966644 425.815887,388.841461 
	C422.642395,393.292023 419.178009,397.534790 415.118958,401.706207 
	C413.986389,400.813202 413.258545,400.059082 412.938843,399.159851 
	C407.324677,383.370087 401.657013,367.598114 396.213226,351.749329 
	C390.278229,334.470581 384.629639,317.093567 378.730682,299.802185 
	C371.814575,279.529114 364.834106,259.277039 357.672150,239.090149 
	C356.864441,236.813492 354.701263,235.017700 353.100159,232.532501 
	C353.033630,220.202744 353.033630,208.339417 353.033630,195.832230 
	C346.864990,195.832230 340.932800,195.832230 334.990265,195.442566 
	C333.885071,191.226044 332.852875,187.379898 331.682434,183.576294 
	C329.149628,175.345139 326.545959,167.135788 324.267700,158.692459 
	C331.330627,156.829758 338.097168,155.192108 344.863678,153.554459 
z"/>
<path fill="#EC712A" opacity="1.000000" stroke="none" 
	d="
M291.518982,473.026917 
	C288.853455,468.508728 286.091370,464.148987 284.429321,459.403961 
	C277.799255,440.475372 271.535919,421.418610 265.089569,402.425354 
	C259.815369,386.885620 254.474030,371.368713 249.544357,355.406036 
	C258.283966,355.021942 266.641693,355.073456 275.009949,355.521057 
	C277.617798,364.137756 280.096405,372.398224 282.837280,380.570740 
	C288.487976,397.419434 294.196472,414.249817 300.039459,431.032623 
	C304.242279,443.104523 308.701508,455.087189 313.046356,467.109650 
	C306.006897,469.075867 298.967468,471.042084 291.518982,473.026917 
z"/>
<path fill="#EB6C2F" opacity="1.000000" stroke="none" 
	d="
M313.439087,467.063293 
	C308.701508,455.087189 304.242279,443.104523 300.039459,431.032623 
	C294.196472,414.249817 288.487976,397.419434 282.837280,380.570740 
	C280.096405,372.398224 277.617798,364.137756 275.473145,355.444336 
	C284.617035,355.022125 293.308228,355.072632 302.002075,355.528381 
	C303.805542,362.490845 305.279663,369.159332 307.467773,375.584717 
	C314.327362,395.727936 321.387634,415.803864 328.515839,435.854034 
	C331.171478,443.323822 334.229614,450.650482 337.104187,458.042358 
	C329.346741,461.033875 321.589264,464.025391 313.439087,467.063293 
z"/>
<path fill="#E65A43" opacity="1.000000" stroke="none" 
	d="
M353.166687,232.998932 
	C354.701263,235.017700 356.864441,236.813492 357.672150,239.090149 
	C364.834106,259.277039 371.814575,279.529114 378.730682,299.802185 
	C384.629639,317.093567 390.278229,334.470581 396.213226,351.749329 
	C401.657013,367.598114 407.324677,383.370087 412.938843,399.159851 
	C413.258545,400.059082 413.986389,400.813202 414.813782,401.841675 
	C410.622009,406.640808 406.140717,411.233154 401.200684,415.621033 
	C394.740509,398.166962 388.657837,380.945038 382.756897,363.661041 
	C374.223755,338.667053 365.863800,313.613861 357.275970,288.638885 
	C356.668549,286.872375 354.796295,285.540802 353.506531,283.537903 
	C353.389465,266.378845 353.278076,249.688889 353.166687,232.998932 
z"/>
<path fill="#E96734" opacity="1.000000" stroke="none" 
	d="
M337.468079,458.014893 
	C334.229614,450.650482 331.171478,443.323822 328.515839,435.854034 
	C321.387634,415.803864 314.327362,395.727936 307.467773,375.584717 
	C305.279663,369.159332 303.805542,362.490845 302.462830,355.451843 
	C310.556732,354.139404 318.192535,353.308746 325.879883,352.886353 
	C328.524780,360.977600 331.064667,368.679047 333.721924,376.339783 
	C340.295471,395.290985 347.022858,414.189606 353.458862,433.187164 
	C355.093994,438.013702 355.871338,443.130920 357.042786,448.114563 
	C350.639191,451.405487 344.235596,454.696442 337.468079,458.014893 
z"/>
<path fill="#E86238" opacity="1.000000" stroke="none" 
	d="
M357.400726,448.058685 
	C355.871338,443.130920 355.093994,438.013702 353.458862,433.187164 
	C347.022858,414.189606 340.295471,395.290985 333.721924,376.339783 
	C331.064667,368.679047 328.524780,360.977600 326.161804,352.706055 
	C331.912628,348.363922 337.433105,344.610382 343.112427,341.194702 
	C349.199738,358.443390 355.171783,375.339172 361.043488,392.269745 
	C366.104187,406.861725 371.050598,421.493317 376.047577,436.107391 
	C369.951263,440.072540 363.854950,444.037689 357.400726,448.058685 
z"/>
<path fill="#E65D3E" opacity="1.000000" stroke="none" 
	d="
M353.512146,284.007019 
	C354.796295,285.540802 356.668549,286.872375 357.275970,288.638885 
	C365.863800,313.613861 374.223755,338.667053 382.756897,363.661041 
	C388.657837,380.945038 394.740509,398.166962 400.894226,415.760864 
	C396.920441,419.679138 392.794434,423.253204 388.319458,426.584930 
	C385.700531,419.226044 383.550598,412.068481 381.136963,405.001007 
	C375.174377,387.541687 369.126312,370.111206 363.042358,352.693695 
	C359.593597,342.820465 356.006439,332.995575 352.511719,322.736511 
	C352.865265,309.551727 353.188721,296.779388 353.512146,284.007019 
z"/>
<path fill="#E75F3C" opacity="1.000000" stroke="none" 
	d="
M352.481628,323.148926 
	C356.006439,332.995575 359.593597,342.820465 363.042358,352.693695 
	C369.126312,370.111206 375.174377,387.541687 381.136963,405.001007 
	C383.550598,412.068481 385.700531,419.226044 388.004639,426.729645 
	C384.253754,430.016296 380.468689,432.915894 376.365601,435.961426 
	C371.050598,421.493317 366.104187,406.861725 361.043488,392.269745 
	C355.171783,375.339172 349.199738,358.443390 343.245941,340.890198 
	C346.307648,334.548218 349.394623,328.848572 352.481628,323.148926 
z"/>
<path fill="#F18518" opacity="1.000000" stroke="none" 
	d="
M166.999268,355.122467 
	C180.944656,395.457550 194.890045,435.792664 208.916718,476.480042 
	C202.238190,475.622772 195.478363,474.413239 188.326935,472.646606 
	C186.245483,467.413879 184.485260,462.762329 182.878281,458.058441 
	C176.707840,439.996582 170.631287,421.902557 164.430252,403.851257 
	C160.666428,392.894806 156.578827,382.047516 152.942596,371.050018 
	C150.666641,364.166595 148.959152,357.095215 147.349609,350.166595 
	C153.811523,353.131470 160.152832,355.122131 166.999268,355.122467 
z"/>
<path fill="#F28815" opacity="1.000000" stroke="none" 
	d="
M146.996597,350.108154 
	C148.959152,357.095215 150.666641,364.166595 152.942596,371.050018 
	C156.578827,382.047516 160.666428,392.894806 164.430252,403.851257 
	C170.631287,421.902557 176.707840,439.996582 182.878281,458.058441 
	C184.485260,462.762329 186.245483,467.413879 187.967178,472.460938 
	C183.099899,471.794983 178.200790,470.757507 173.096161,469.381012 
	C173.175781,467.835449 174.003021,466.445221 173.665619,465.449646 
	C167.432816,447.058411 161.002838,428.734131 154.736969,410.353973 
	C149.804520,395.885254 145.057617,381.353363 140.191025,366.862061 
	C137.236008,358.062927 134.165436,349.302277 131.265610,340.485229 
	C130.843781,339.202698 131.086182,337.701721 131.509888,336.268738 
	C136.997894,340.859833 141.997253,345.483978 146.996597,350.108154 
z"/>
<path fill="#FFFDFC" opacity="1.000000" stroke="none" 
	d="
M147.349609,350.166595 
	C141.997253,345.483978 136.997894,340.859833 131.766602,336.016602 
	C125.143501,325.830292 124.707542,314.677582 125.051544,303.361084 
	C125.116676,301.218628 125.039986,299.071899 124.952477,296.463989 
	C124.926788,272.976593 124.977364,249.952316 124.952103,226.464905 
	C127.416267,206.191452 121.425842,187.625320 116.554237,168.894867 
	C116.101883,167.155655 115.715347,165.399323 115.186623,163.183014 
	C119.433968,162.079437 123.498367,161.023392 127.905907,159.822906 
	C136.325333,157.709274 144.401611,155.740097 152.799347,153.588013 
	C160.173111,151.676361 167.225418,149.947601 174.638367,148.055115 
	C182.463608,146.102356 189.928223,144.313293 197.697037,142.290268 
	C205.492874,140.294373 212.984512,138.532455 220.796997,136.587006 
	C227.841034,134.670914 234.564224,132.938354 241.643066,131.041107 
	C248.122162,129.517166 254.245621,128.157898 260.695007,126.624176 
	C267.509033,124.882362 273.997101,123.314995 280.791260,121.538437 
	C287.520172,119.738426 293.943054,118.147614 300.685791,116.358032 
	C308.099823,114.501587 315.193939,112.843903 322.643768,111.026146 
	C327.321167,109.926674 331.642853,108.987267 336.404175,107.952301 
	C340.039124,122.400963 343.631531,136.557053 347.070923,150.750214 
	C347.227783,151.397537 346.005585,152.379074 345.144684,153.379700 
	C338.097168,155.192108 331.330627,156.829758 323.860901,158.683029 
	C313.055450,161.450455 302.953247,164.002258 292.442322,166.601318 
	C282.973511,168.947113 273.913391,171.245636 264.444458,173.593353 
	C253.640121,176.272400 243.244583,178.902252 232.440598,181.583679 
	C213.942657,186.136871 195.853149,190.638519 177.763657,195.140167 
	C177.809586,195.372513 177.855530,195.604858 177.901459,195.837204 
	C197.268219,195.837204 216.634964,195.837204 236.466095,195.903687 
	C248.287155,195.924622 259.643829,195.879074 271.464844,195.901031 
	C282.285950,195.923141 292.642761,195.877731 303.463898,195.899963 
	C314.285706,195.922485 324.643158,195.877365 335.000610,195.832245 
	C340.932800,195.832230 346.864990,195.832230 353.033630,195.832230 
	C353.033630,208.339417 353.033630,220.202744 353.100159,232.532501 
	C353.278076,249.688889 353.389465,266.378845 353.506500,283.537903 
	C353.188721,296.779388 352.865265,309.551727 352.511719,322.736511 
	C349.394623,328.848572 346.307648,334.548218 343.087128,340.552368 
	C337.433105,344.610382 331.912628,348.363922 326.110229,352.297760 
	C318.192535,353.308746 310.556732,354.139404 302.460175,355.046631 
	C293.308228,355.072632 284.617035,355.022125 275.462646,355.048279 
	C266.641693,355.073456 258.283966,355.021942 249.463104,355.047180 
	C240.641861,355.072083 232.283752,355.020233 223.462448,355.045349 
	C213.641327,355.071320 204.283371,355.020294 194.462280,355.046509 
	C185.307938,355.071838 176.616730,355.019897 167.462402,355.045227 
	C160.152832,355.122131 153.811523,353.131470 147.349609,350.166595 
M262.923065,344.114899 
	C270.615112,344.056854 278.307129,343.998779 286.922638,344.114166 
	C294.614838,344.056152 302.307037,343.998169 310.857239,344.106262 
	C322.025299,343.879181 331.098022,339.697357 337.835480,329.688446 
	C341.727509,323.751251 342.851074,317.107452 342.848358,310.166107 
	C342.840210,289.357178 342.850281,268.548248 342.834534,247.739319 
	C342.833313,246.124054 342.686951,244.508896 342.593445,242.594696 
	C330.153259,242.594696 318.060028,242.594696 305.057770,242.376663 
	C295.376953,242.457703 285.696167,242.538727 275.103088,242.382401 
	C264.415924,242.447388 253.728760,242.512390 242.124222,242.345062 
	C233.399643,242.424164 224.675079,242.503250 215.040894,242.377319 
	C204.366486,242.458191 193.692078,242.539062 182.109543,242.381241 
	C177.400146,242.461838 172.690735,242.542435 167.076096,242.382675 
	C161.044281,242.462311 155.012466,242.541931 148.085266,242.382385 
	C144.146118,242.382385 140.206955,242.382385 136.080017,242.382385 
	C136.080017,267.479004 135.498260,291.967255 136.294357,316.410614 
	C136.785782,331.499695 150.375000,343.452789 165.528824,344.053772 
	C171.341812,344.284363 177.175522,343.992188 183.921524,344.113129 
	C189.614304,344.055328 195.307068,343.997528 201.919434,344.114685 
	C206.946182,344.056183 211.972931,343.997681 217.922592,344.114044 
	C224.614883,344.056000 231.307175,343.997955 238.922577,344.115295 
	C246.614960,344.057343 254.307343,343.999359 262.923065,344.114899 
M228.697571,145.740173 
	C222.570694,147.271545 216.443817,148.802933 209.472443,150.545395 
	C217.185730,157.145081 224.073441,163.073120 231.021439,168.929703 
	C231.718460,169.517242 232.880890,170.126053 233.657928,169.955078 
	C240.199982,168.515579 246.702530,166.896500 254.230453,165.087967 
	C246.425964,158.384903 239.567551,152.437866 232.616531,146.601089 
	C231.812073,145.925583 230.493332,145.862549 228.697571,145.740173 
M260.255981,137.939896 
	C260.295624,138.428284 260.139191,139.141251 260.403625,139.372208 
	C266.790100,144.949509 273.161041,150.548706 279.701202,155.942123 
	C280.864594,156.901535 282.901123,157.624039 284.301086,157.333069 
	C290.490479,156.046692 296.594635,154.350220 303.475464,152.614014 
	C300.104980,149.713058 297.522491,147.391373 294.834869,145.198547 
	C289.843262,141.125931 285.267944,134.945419 279.629028,133.711639 
	C273.950714,132.469299 267.189850,136.174698 260.255981,137.939896 
M173.753006,213.769623 
	C177.178940,218.669403 180.547073,223.611328 184.069595,228.440659 
	C185.003586,229.721161 186.370834,231.542465 187.610123,231.600540 
	C194.283463,231.913208 200.979172,231.748474 208.626343,231.748474 
	C202.758789,223.439621 197.642105,216.100891 192.385193,208.864029 
	C191.704224,207.926575 190.313934,206.978699 189.226761,206.948395 
	C182.806992,206.769302 176.379700,206.860153 169.024429,206.860153 
	C170.784988,209.462051 172.050476,211.332306 173.753006,213.769623 
M276.869812,206.827438 
	C275.153168,206.908463 273.436493,206.989487 270.996948,207.104645 
	C276.632294,215.111465 281.735535,222.422333 286.931519,229.666641 
	C287.560822,230.544052 288.676270,231.632690 289.591003,231.655930 
	C296.261902,231.825317 302.939087,231.747116 310.494049,231.747116 
	C307.174225,226.991241 303.976868,223.464859 301.987335,219.353958 
	C296.952240,208.950027 289.215149,204.500031 276.869812,206.827438 
M243.817642,231.840897 
	C248.729141,231.840897 253.640656,231.840897 259.623840,231.840897 
	C253.654785,223.354172 248.359680,215.767899 242.966232,208.252197 
	C242.461929,207.549484 241.342957,206.904770 240.498169,206.890350 
	C233.956635,206.778671 227.412323,206.828751 219.961853,206.828751 
	C225.526001,214.853989 230.186325,222.131104 235.510544,228.884827 
	C236.935318,230.692169 240.386993,230.901627 243.817642,231.840897 
M170.028366,171.475952 
	C173.441681,174.382111 176.743530,177.436905 180.322952,180.121582 
	C181.763840,181.202316 183.960999,182.266647 185.559433,181.969467 
	C191.682312,180.831116 197.701813,179.136780 204.810593,177.392090 
	C196.951721,170.679565 189.852631,164.567093 182.665131,158.560410 
	C182.019409,158.020767 180.726562,157.842422 179.861877,158.043945 
	C173.622681,159.498215 167.416397,161.093689 160.272018,162.875824 
	C163.853210,166.026672 166.677887,168.511902 170.028366,171.475952 
M139.999680,176.495712 
	C137.705185,174.592133 135.493713,172.571457 133.068481,170.852310 
	C132.283813,170.296097 130.726288,170.118530 129.916565,170.534760 
	C129.270172,170.867035 128.774414,172.470642 128.979141,173.326340 
	C130.694489,180.496017 132.587219,187.623245 134.484421,194.988144 
	C141.608582,193.186218 148.107986,191.542313 155.388138,189.700928 
	C150.034225,185.124634 145.274643,181.056351 139.999680,176.495712 
M135.990372,209.826294 
	C135.990372,216.924362 135.990372,224.022430 135.990372,231.418396 
	C143.115143,231.418396 149.786118,231.418396 157.363205,231.418396 
	C151.626068,223.272537 146.441605,215.658508 140.938492,208.282196 
	C139.622940,206.518814 137.177368,205.051941 135.990372,209.826294 
M327.087189,214.438889 
	C332.017242,220.105911 334.631561,227.772934 342.272552,232.960846 
	C342.272552,223.375290 342.272552,215.257095 342.272552,207.203125 
	C335.471466,207.203125 329.122162,207.203125 322.110382,207.203125 
	C323.896301,209.796310 325.291382,211.821945 327.087189,214.438889 
M319.431274,122.996979 
	C316.000916,123.910133 312.570587,124.823280 308.446899,125.920990 
	C315.834564,132.261139 322.455444,138.052795 329.232910,143.655029 
	C330.402832,144.622086 332.237183,144.785355 334.911804,145.721375 
	C332.560547,136.592514 330.558838,128.820786 328.473022,120.722610 
	C325.342712,121.530312 322.790680,122.188789 319.431274,122.996979 
z"/>
<path fill="#E65C3F" opacity="1.000000" stroke="none" 
	d="
M292.851044,166.554062 
	C302.953247,164.002258 313.055450,161.450455 323.564453,158.908081 
	C326.545959,167.135788 329.149628,175.345139 331.682434,183.576294 
	C332.852875,187.379898 333.885071,191.226044 334.990265,195.442566 
	C324.643158,195.877365 314.285706,195.922485 303.379761,195.551605 
	C299.504547,185.608429 296.177795,176.081238 292.851044,166.554062 
z"/>
<path fill="#E96536" opacity="1.000000" stroke="none" 
	d="
M276.015350,242.619766 
	C285.696167,242.538727 295.376953,242.457703 305.518890,242.865082 
	C306.886200,246.505188 307.678162,249.695023 308.716675,252.802490 
	C316.654907,276.555328 324.576263,300.314423 332.716217,323.998260 
	C333.502411,326.285797 335.737122,328.075500 337.299438,330.096283 
	C331.098022,339.697357 322.025299,343.879181 310.349854,343.659668 
	C300.819031,316.962006 291.748474,290.726990 282.803009,264.449371 
	C280.348145,257.238281 278.267639,249.899796 276.015350,242.619766 
z"/>
<path fill="#F0821B" opacity="1.000000" stroke="none" 
	d="
M182.999786,343.938232 
	C177.175522,343.992188 171.341812,344.284363 165.528824,344.053772 
	C150.375000,343.452789 136.785782,331.499695 136.294357,316.410614 
	C135.498260,291.967255 136.080017,267.479004 136.080017,242.382385 
	C140.206955,242.382385 144.146118,242.382385 148.550247,242.858521 
	C152.281067,253.281281 155.458542,263.257965 158.834183,273.167206 
	C163.499695,286.862885 168.360275,300.492004 173.050064,314.179535 
	C176.440170,324.073914 179.688339,334.016907 182.999786,343.938232 
z"/>
<path fill="#EA6A32" opacity="1.000000" stroke="none" 
	d="
M275.559204,242.501083 
	C278.267639,249.899796 280.348145,257.238281 282.803009,264.449371 
	C291.748474,290.726990 300.819031,316.962006 309.920837,343.576630 
	C302.307037,343.998169 294.614838,344.056152 286.381256,343.657074 
	C284.847229,340.030273 283.936615,336.832123 282.847473,333.695923 
	C278.595245,321.451630 274.286530,309.226990 270.220642,296.718201 
	C274.422852,294.368805 273.772278,292.658813 270.213898,290.720306 
	C264.697113,287.714996 259.315796,284.461029 253.897583,280.870270 
	C253.465485,277.687653 253.313385,274.855133 252.506729,272.223236 
	C249.467087,262.305908 246.214478,252.453873 243.041595,242.577393 
	C253.728760,242.512390 264.415924,242.447388 275.559204,242.501083 
z"/>
<path fill="#EE7725" opacity="1.000000" stroke="none" 
	d="
M237.999466,343.939911 
	C231.307175,343.997955 224.614883,344.056000 217.431458,343.647095 
	C215.665298,339.404846 214.410385,335.622620 213.111786,331.855469 
	C206.778595,313.483063 200.359726,295.139832 194.120346,276.735687 
	C190.280945,265.410736 186.709442,253.994934 183.017670,242.619919 
	C193.692078,242.539062 204.366486,242.458191 215.505844,242.864853 
	C216.339005,245.466202 216.643295,247.593582 217.088745,249.690994 
	C218.012283,254.039673 219.010788,258.372437 219.620850,262.992218 
	C219.010910,264.389862 218.541519,265.506531 218.538666,266.624359 
	C218.492569,284.619415 218.490356,302.614655 218.535904,320.609711 
	C218.539444,322.011200 218.971756,323.411591 219.257416,325.128937 
	C223.050827,323.235718 226.401352,321.563538 229.992767,320.180847 
	C232.822266,328.293549 235.410873,336.116730 237.999466,343.939911 
z"/>
<path fill="#E86441" opacity="1.000000" stroke="none" 
	d="
M337.567444,329.892365 
	C335.737122,328.075500 333.502411,326.285797 332.716217,323.998260 
	C324.576263,300.314423 316.654907,276.555328 308.716675,252.802490 
	C307.678162,249.695023 306.886200,246.505188 305.973389,242.974106 
	C318.060028,242.594696 330.153259,242.594696 342.593445,242.594696 
	C342.686951,244.508896 342.833313,246.124054 342.834534,247.739319 
	C342.850281,268.548248 342.840210,289.357178 342.848358,310.166107 
	C342.851074,317.107452 341.727509,323.751251 337.567444,329.892365 
z"/>
<path fill="#EF7D1F" opacity="1.000000" stroke="none" 
	d="
M183.460663,344.025696 
	C179.688339,334.016907 176.440170,324.073914 173.050064,314.179535 
	C168.360275,300.492004 163.499695,286.862885 158.834183,273.167206 
	C155.458542,263.257965 152.281067,253.281281 148.997940,242.978119 
	C155.012466,242.541931 161.044281,242.462311 167.533539,242.884247 
	C168.410248,245.656448 168.544128,248.026062 169.292175,250.182648 
	C178.536682,276.834167 187.913116,303.439941 197.140579,330.097321 
	C198.704514,334.615387 199.727127,339.320862 200.999847,343.939728 
	C195.307068,343.997528 189.614304,344.055328 183.460663,344.025696 
z"/>
<path fill="#EE7A22" opacity="1.000000" stroke="none" 
	d="
M201.459641,344.027222 
	C199.727127,339.320862 198.704514,334.615387 197.140579,330.097321 
	C187.913116,303.439941 178.536682,276.834167 169.292175,250.182648 
	C168.544128,248.026062 168.410248,245.656448 167.986145,243.004425 
	C172.690735,242.542435 177.400146,242.461838 182.563599,242.500580 
	C186.709442,253.994934 190.280945,265.410736 194.120346,276.735687 
	C200.359726,295.139832 206.778595,313.483063 213.111786,331.855469 
	C214.410385,335.622620 215.665298,339.404846 216.970001,343.559631 
	C211.972931,343.997681 206.946182,344.056183 201.459641,344.027222 
z"/>
<path fill="#EB6E2E" opacity="1.000000" stroke="none" 
	d="
M269.998810,296.995026 
	C274.286530,309.226990 278.595245,321.451630 282.847473,333.695923 
	C283.936615,336.832123 284.847229,340.030273 285.919525,343.570374 
	C278.307129,343.998779 270.615112,344.056854 262.452087,343.633575 
	C261.327789,340.783997 260.751190,338.391357 260.007690,336.051758 
	C257.018829,326.646637 253.978317,317.257965 251.162415,307.593689 
	C257.578247,303.881165 263.788513,300.438110 269.998810,296.995026 
z"/>
<path fill="#ED7836" opacity="1.000000" stroke="none" 
	d="
M219.978470,262.711761 
	C219.010788,258.372437 218.012283,254.039673 217.088745,249.690994 
	C216.643295,247.593582 216.339005,245.466202 215.960648,242.967377 
	C224.675079,242.503250 233.399643,242.424164 242.582916,242.461227 
	C246.214478,252.453873 249.467087,262.305908 252.506729,272.223236 
	C253.313385,274.855133 253.465485,277.687653 253.558289,280.749512 
	C242.125137,274.951263 231.051804,268.831512 219.978470,262.711761 
z"/>
<path fill="#E8633A" opacity="1.000000" stroke="none" 
	d="
M292.442322,166.601318 
	C296.177795,176.081238 299.504547,185.608429 302.915405,195.483963 
	C292.642761,195.877731 282.285950,195.923141 271.454376,195.509552 
	C270.581879,193.309677 270.273010,191.542664 269.770111,189.832733 
	C268.170013,184.391785 266.497681,178.972092 264.853271,173.544159 
	C273.913391,171.245636 282.973511,168.947113 292.442322,166.601318 
z"/>
<path fill="#EC732A" opacity="1.000000" stroke="none" 
	d="
M250.956894,307.863159 
	C253.978317,317.257965 257.018829,326.646637 260.007690,336.051758 
	C260.751190,338.391357 261.327789,340.783997 261.990417,343.546814 
	C254.307343,343.999359 246.614960,344.057343 238.461029,344.027588 
	C235.410873,336.116730 232.822266,328.293549 230.196075,319.896332 
	C237.091293,315.502594 244.024094,311.682892 250.956894,307.863159 
z"/>
<path fill="#EA6935" opacity="1.000000" stroke="none" 
	d="
M264.444458,173.593353 
	C266.497681,178.972092 268.170013,184.391785 269.770111,189.832733 
	C270.273010,191.542664 270.581879,193.309677 270.990051,195.442047 
	C259.643829,195.879074 248.287155,195.924622 236.455292,195.512589 
	C234.936432,190.547363 233.892731,186.039734 232.849030,181.532104 
	C243.244583,178.902252 253.640121,176.272400 264.444458,173.593353 
z"/>
<path fill="#EB6E37" opacity="1.000000" stroke="none" 
	d="
M229.055298,145.627869 
	C230.493332,145.862549 231.812073,145.925583 232.616531,146.601089 
	C239.567551,152.437866 246.425964,158.384903 254.230453,165.087967 
	C246.702530,166.896500 240.199982,168.515579 233.657928,169.955078 
	C232.880890,170.126053 231.718460,169.517242 231.021439,168.929703 
	C224.073441,163.073120 217.185730,157.145081 209.472443,150.545395 
	C216.443817,148.802933 222.570694,147.271545 229.055298,145.627869 
z"/>
<path fill="#E86440" opacity="1.000000" stroke="none" 
	d="
M260.579651,137.826019 
	C267.189850,136.174698 273.950714,132.469299 279.629028,133.711639 
	C285.267944,134.945419 289.843262,141.125931 294.834869,145.198547 
	C297.522491,147.391373 300.104980,149.713058 303.475464,152.614014 
	C296.594635,154.350220 290.490479,156.046692 284.301086,157.333069 
	C282.901123,157.624039 280.864594,156.901535 279.701202,155.942123 
	C273.161041,150.548706 266.790100,144.949509 260.403625,139.372208 
	C260.139191,139.141251 260.295624,138.428284 260.579651,137.826019 
z"/>
<path fill="#EE792B" opacity="1.000000" stroke="none" 
	d="
M173.534485,213.486084 
	C172.050476,211.332306 170.784988,209.462051 169.024429,206.860153 
	C176.379700,206.860153 182.806992,206.769302 189.226761,206.948395 
	C190.313934,206.978699 191.704224,207.926575 192.385193,208.864029 
	C197.642105,216.100891 202.758789,223.439621 208.626343,231.748474 
	C200.979172,231.748474 194.283463,231.913208 187.610123,231.600540 
	C186.370834,231.542465 185.003586,229.721161 184.069595,228.440659 
	C180.547073,223.611328 177.178940,218.669403 173.534485,213.486084 
z"/>
<path fill="#E8663D" opacity="1.000000" stroke="none" 
	d="
M277.324097,206.827377 
	C289.215149,204.500031 296.952240,208.950027 301.987335,219.353958 
	C303.976868,223.464859 307.174225,226.991241 310.494049,231.747116 
	C302.939087,231.747116 296.261902,231.825317 289.591003,231.655930 
	C288.676270,231.632690 287.560822,230.544052 286.931519,229.666641 
	C281.735535,222.422333 276.632294,215.111465 270.996948,207.104645 
	C273.436493,206.989487 275.153168,206.908463 277.324097,206.827377 
z"/>
<path fill="#EB6F34" opacity="1.000000" stroke="none" 
	d="
M243.362900,231.842773 
	C240.386993,230.901627 236.935318,230.692169 235.510544,228.884827 
	C230.186325,222.131104 225.526001,214.853989 219.961853,206.828751 
	C227.412323,206.828751 233.956635,206.778671 240.498169,206.890350 
	C241.342957,206.904770 242.461929,207.549484 242.966232,208.252197 
	C248.359680,215.767899 253.654785,223.354172 259.623840,231.840897 
	C253.640656,231.840897 248.729141,231.840897 243.362900,231.842773 
z"/>
<path fill="#ED772C" opacity="1.000000" stroke="none" 
	d="
M169.765472,171.236542 
	C166.677887,168.511902 163.853210,166.026672 160.272018,162.875824 
	C167.416397,161.093689 173.622681,159.498215 179.861877,158.043945 
	C180.726562,157.842422 182.019409,158.020767 182.665131,158.560410 
	C189.852631,164.567093 196.951721,170.679565 204.810593,177.392090 
	C197.701813,179.136780 191.682312,180.831116 185.559433,181.969467 
	C183.960999,182.266647 181.763840,181.202316 180.322952,180.121582 
	C176.743530,177.436905 173.441681,174.382111 169.765472,171.236542 
z"/>
<path fill="#EC7230" opacity="1.000000" stroke="none" 
	d="
M232.440582,181.583664 
	C233.892731,186.039734 234.936432,190.547363 235.990921,195.446106 
	C216.634964,195.837204 197.268219,195.837204 177.901459,195.837204 
	C177.855530,195.604858 177.809586,195.372513 177.763657,195.140167 
	C195.853149,190.638519 213.942657,186.136871 232.440582,181.583664 
z"/>
<path fill="#F08126" opacity="1.000000" stroke="none" 
	d="
M140.257370,176.741882 
	C145.274643,181.056351 150.034225,185.124634 155.388138,189.700928 
	C148.107986,191.542313 141.608582,193.186218 134.484421,194.988144 
	C132.587219,187.623245 130.694489,180.496017 128.979141,173.326340 
	C128.774414,172.470642 129.270172,170.867035 129.916565,170.534760 
	C130.726288,170.118530 132.283813,170.296097 133.068481,170.852310 
	C135.493713,172.571457 137.705185,174.592133 140.257370,176.741882 
z"/>
<path fill="#F08326" opacity="1.000000" stroke="none" 
	d="
M135.995331,209.367004 
	C137.177368,205.051941 139.622940,206.518814 140.938492,208.282196 
	C146.441605,215.658508 151.626068,223.272537 157.363205,231.418396 
	C149.786118,231.418396 143.115143,231.418396 135.990372,231.418396 
	C135.990372,224.022430 135.990372,216.924362 135.995331,209.367004 
z"/>
<path fill="#E76148" opacity="1.000000" stroke="none" 
	d="
M326.886841,214.143234 
	C325.291382,211.821945 323.896301,209.796310 322.110382,207.203125 
	C329.122162,207.203125 335.471466,207.203125 342.272552,207.203125 
	C342.272552,215.257095 342.272552,223.375290 342.272552,232.960846 
	C334.631561,227.772934 332.017242,220.105911 326.886841,214.143234 
z"/>
<path fill="#E65D4A" opacity="1.000000" stroke="none" 
	d="
M319.834961,122.922119 
	C322.790680,122.188789 325.342712,121.530312 328.473022,120.722610 
	C330.558838,128.820786 332.560547,136.592514 334.911804,145.721375 
	C332.237183,144.785355 330.402832,144.622086 329.232910,143.655029 
	C322.455444,138.052795 315.834564,132.261139 308.446899,125.920990 
	C312.570587,124.823280 316.000916,123.910133 319.834961,122.922119 
z"/>
<path fill="#FFFEFD" opacity="1.000000" stroke="none" 
	d="
M251.162415,307.593689 
	C244.024094,311.682892 237.091293,315.502594 229.955200,319.606812 
	C226.401352,321.563538 223.050827,323.235718 219.257416,325.128937 
	C218.971756,323.411591 218.539444,322.011200 218.535904,320.609711 
	C218.490356,302.614655 218.492569,284.619415 218.538666,266.624359 
	C218.541519,265.506531 219.010910,264.389862 219.620850,262.992218 
	C231.051804,268.831512 242.125137,274.951263 253.537750,281.191772 
	C259.315796,284.461029 264.697113,287.714996 270.213898,290.720306 
	C273.772278,292.658813 274.422852,294.368805 270.220642,296.718201 
	C263.788513,300.438110 257.578247,303.881165 251.162415,307.593689 
z"/>
</svg>